<svg id="expanded" xmlns="http://www.w3.org/2000/svg" viewBox="0 0 160 44"><defs><style>.cls-1,.cls-3{fill:#d71d2d;}.cls-2{fill:#c4c6c8;}.cls-3{fill-rule:evenodd;}.cls-4{fill:#aaa;}</style></defs><title>Artboard 11</title><ellipse class="cls-1" cx="22.36" cy="22.02" rx="19.4" ry="19.42"/><ellipse class="cls-2" cx="22.36" cy="22.02" rx="17.3" ry="17.31"/><polygon class="cls-3" points="21.38 39.24 21.42 31.12 15.51 32.54 16.6 29.53 7.75 22.35 9.74 21.42 7.99 16.03 13.09 17.12 14.08 14.79 18.06 19.07 16.14 9.16 19.21 10.94 22.34 4.8 25.46 10.94 28.54 9.16 26.62 19.07 30.6 14.79 31.59 17.12 36.69 16.03 34.94 21.42 36.93 22.35 28.08 29.53 29.17 32.54 23.26 31.12 23.29 39.24 21.38 39.24"/><path class="cls-1" d="M48.5,22.21c0-8.22,5.43-13,11.69-13a10.42,10.42,0,0,1,7.44,3.21L64.68,16a6.21,6.21,0,0,0-4.37-2c-3.39,0-6.07,3-6.07,8s2.36,8.05,6,8.05a6.5,6.5,0,0,0,4.84-2.32l3,3.52a10.18,10.18,0,0,1-8,3.63C53.74,34.9,48.5,30.55,48.5,22.21Z"/><path class="cls-1" d="M69.19,22.21c0-8.22,5.43-13,11.68-13a10.45,10.45,0,0,1,7.45,3.21L85.37,16a6.23,6.23,0,0,0-4.37-2c-3.4,0-6.08,3-6.08,8s2.37,8.05,6,8.05a6.5,6.5,0,0,0,4.84-2.32l3,3.52a10.18,10.18,0,0,1-8,3.63C74.43,34.9,69.19,30.55,69.19,22.21Z"/><path class="cls-1" d="M93.48,15.81a3.37,3.37,0,1,1,6.74,0,3.37,3.37,0,1,1-6.74,0Zm0,12.31a3.37,3.37,0,1,1,6.74,0,3.37,3.37,0,1,1-6.74,0Z"/><path class="cls-1" d="M102.6,15.81a3.37,3.37,0,1,1,6.74,0,3.37,3.37,0,1,1-6.74,0Zm0,12.31a3.37,3.37,0,1,1,6.74,0,3.37,3.37,0,1,1-6.74,0Z"/><path class="cls-4" d="M114.72,22c0-8.09,4.56-12.73,11.24-12.73S137.2,13.9,137.2,22,132.64,34.9,126,34.9,114.72,30.05,114.72,22Zm16.75,0c0-5-2.13-7.9-5.51-7.9S120.45,17,120.45,22s2.13,8.11,5.51,8.11S131.47,26.92,131.47,22Z"/><path class="cls-4" d="M137.51,30.42l3.8-2.83a4,4,0,0,0,3.45,2.48c2,0,3.08-1,3.08-4.33V9.68h5.6V26.21c0,4.76-2.48,8.69-7.94,8.69C141.71,34.9,139.22,33.42,137.51,30.42Z"/></svg>